# xmcd
#
# Track frame offsets: 
#        150
#        21138
#        36831
#        56150
#        78382
#        95080
#        116662
#        140967
#        158725
#        175047
#        193720
#        213490
#        230897
#
# Disc length: 3339 seconds
#
# Revision: 0
# Processed by: cddbd v1.5.2PL0 Copyright (c) Steve Scherf et al.
# Submitted via: ExactAudioCopy v1.3
#
DISCID=bd0d090d
DTITLE=Bad Influence - Got What You Need
DYEAR=2019
DGENRE=Blues Rock
TTITLE0=Got What You Need
TTITLE1=Lid Flippin' Short
TTITLE2=Male Man
TTITLE3=My Little Girl
TTITLE4=Party Party
TTITLE5=Nuthin' Less Than A Dime
TTITLE6=Wee Wee Hours
TTITLE7=Don't Mess With My Toot Toot
TTITLE8=My Babe
TTITLE9=I Feel Good
TTITLE10=I Can Tell
TTITLE11=Eyesight To The Blind
TTITLE12=Blue Midnight
EXTD=
EXTT0=
EXTT1=
EXTT2=
EXTT3=
EXTT4=
EXTT5=
EXTT6=
EXTT7=
EXTT8=
EXTT9=
EXTT10=
EXTT11=
EXTT12=
PLAYORDER=
